<svg width="40" height="41" viewBox="0 0 40 41" fill="none" xmlns="http://www.w3.org/2000/svg">
<g clip-path="url(#clip0_179_3)">
<path d="M40 0H0V40H40V0Z" fill="#001220"/>
<path d="M0 24L1 24.7C2 25.3 4 26.7 5.8 26.8C7.7 27 9.3 26 11.2 25.8C13 25.7 15 26.3 17 26.3C19 26.3 21 25.7 23 25.3C25 25 27 25 28.8 25.3C30.7 25.7 32.3 26.3 34.2 26.8C36 27.3 38 27.7 39 27.8L40 28V41H39C38 41 36 41 34.2 41C32.3 41 30.7 41 28.8 41C27 41 25 41 23 41C21 41 19 41 17 41C15 41 13 41 11.2 41C9.3 41 7.7 41 5.8 41C4 41 2 41 1 41H0V24Z" fill="#FA7268"/>
<path d="M0 31L1 30.2C2 29.3 4 27.7 5.8 26.8C7.7 26 9.3 26 11.2 26.7C13 27.3 15 28.7 17 29.3C19 30 21 30 23 29.7C25 29.3 27 28.7 28.8 27.8C30.7 27 32.3 26 34.2 25.7C36 25.3 38 25.7 39 25.8L40 26V41H39C38 41 36 41 34.2 41C32.3 41 30.7 41 28.8 41C27 41 25 41 23 41C21 41 19 41 17 41C15 41 13 41 11.2 41C9.3 41 7.7 41 5.8 41C4 41 2 41 1 41H0V31Z" fill="#EF5F67"/>
<path d="M0 33L1 32.5C2 32 4 31 5.8 30.5C7.7 30 9.3 30 11.2 30.2C13 30.3 15 30.7 17 30.8C19 31 21 31 23 30.5C25 30 27 29 28.8 29.3C30.7 29.7 32.3 31.3 34.2 32C36 32.7 38 32.3 39 32.2L40 32V41H39C38 41 36 41 34.2 41C32.3 41 30.7 41 28.8 41C27 41 25 41 23 41C21 41 19 41 17 41C15 41 13 41 11.2 41C9.3 41 7.7 41 5.8 41C4 41 2 41 1 41H0V33Z" fill="#E34C67"/>
<path d="M0 32L1 32.5C2 33 4 34 5.8 34.2C7.7 34.3 9.3 33.7 11.2 33C13 32.3 15 31.7 17 32C19 32.3 21 33.7 23 34C25 34.3 27 33.7 28.8 33.5C30.7 33.3 32.3 33.7 34.2 33.7C36 33.7 38 33.3 39 33.2L40 33V41H39C38 41 36 41 34.2 41C32.3 41 30.7 41 28.8 41C27 41 25 41 23 41C21 41 19 41 17 41C15 41 13 41 11.2 41C9.3 41 7.7 41 5.8 41C4 41 2 41 1 41H0V32Z" fill="#D53867"/>
<path d="M0 37L1 36.7C2 36.3 4 35.7 5.8 35.5C7.7 35.3 9.3 35.7 11.2 35.5C13 35.3 15 34.7 17 34.7C19 34.7 21 35.3 23 35.8C25 36.3 27 36.7 28.8 36.3C30.7 36 32.3 35 34.2 34.7C36 34.3 38 34.7 39 34.8L40 35V41H39C38 41 36 41 34.2 41C32.3 41 30.7 41 28.8 41C27 41 25 41 23 41C21 41 19 41 17 41C15 41 13 41 11.2 41C9.3 41 7.7 41 5.8 41C4 41 2 41 1 41H0V37Z" fill="#C62368"/>
<path fill-rule="evenodd" clip-rule="evenodd" d="M20.5 4L29 12.5L20.5 21L12 12.5L20.5 4Z" fill="#13212B"/>
<path fill-rule="evenodd" clip-rule="evenodd" d="M20.6287 14.1459L19.0041 15L19.3143 13.191L18 11.9098L19.8164 11.6459L20.6287 10L21.441 11.6459L23.2573 11.9098L21.943 13.191L22.2533 15L20.6287 14.1459Z" fill="#50E3C2"/>
</g>
<defs>
<clipPath id="clip0_179_3">
<rect width="40" height="41" rx="8" fill="white"/>
</clipPath>
</defs>
</svg>
