<?xml version="1.0" encoding="UTF-8"?>
<svg width="40px" height="41px" viewBox="0 0 40 41" version="1.1" xmlns="http://www.w3.org/2000/svg">
    <g id="Page-1" stroke="none" stroke-width="1" fill="none" fill-rule="evenodd">
        <g id="Group">
            <rect id="Rectangle-path" fill="#001220" fill-rule="nonzero" x="0" y="0" width="40" height="40"></rect>
            <path d="M0,24 L1,24.7 C2,25.3 4,26.7 5.8,26.8 C7.7,27 9.3,26 11.2,25.8 C13,25.7 15,26.3 17,26.3 C19,26.3 21,25.7 23,25.3 C25,25 27,25 28.8,25.3 C30.7,25.7 32.3,26.3 34.2,26.8 C36,27.3 38,27.7 39,27.8 L40,28 L40,41 L39,41 C38,41 36,41 34.2,41 C32.3,41 30.7,41 28.8,41 C27,41 25,41 23,41 C21,41 19,41 17,41 C15,41 13,41 11.2,41 C9.3,41 7.7,41 5.8,41 C4,41 2,41 1,41 L0,41 L0,24 Z"
                  id="Shape" fill="#FA7268" fill-rule="nonzero"></path>
            <path d="M0,31 L1,30.2 C2,29.3 4,27.7 5.8,26.8 C7.7,26 9.3,26 11.2,26.7 C13,27.3 15,28.7 17,29.3 C19,30 21,30 23,29.7 C25,29.3 27,28.7 28.8,27.8 C30.7,27 32.3,26 34.2,25.7 C36,25.3 38,25.7 39,25.8 L40,26 L40,41 L39,41 C38,41 36,41 34.2,41 C32.3,41 30.7,41 28.8,41 C27,41 25,41 23,41 C21,41 19,41 17,41 C15,41 13,41 11.2,41 C9.3,41 7.7,41 5.8,41 C4,41 2,41 1,41 L0,41 L0,31 Z"
                  id="Shape" fill="#EF5F67" fill-rule="nonzero"></path>
            <path d="M0,33 L1,32.5 C2,32 4,31 5.8,30.5 C7.7,30 9.3,30 11.2,30.2 C13,30.3 15,30.7 17,30.8 C19,31 21,31 23,30.5 C25,30 27,29 28.8,29.3 C30.7,29.7 32.3,31.3 34.2,32 C36,32.7 38,32.3 39,32.2 L40,32 L40,41 L39,41 C38,41 36,41 34.2,41 C32.3,41 30.7,41 28.8,41 C27,41 25,41 23,41 C21,41 19,41 17,41 C15,41 13,41 11.2,41 C9.3,41 7.7,41 5.8,41 C4,41 2,41 1,41 L0,41 L0,33 Z"
                  id="Shape" fill="#E34C67" fill-rule="nonzero"></path>
            <path d="M0,32 L1,32.5 C2,33 4,34 5.8,34.2 C7.7,34.3 9.3,33.7 11.2,33 C13,32.3 15,31.7 17,32 C19,32.3 21,33.7 23,34 C25,34.3 27,33.7 28.8,33.5 C30.7,33.3 32.3,33.7 34.2,33.7 C36,33.7 38,33.3 39,33.2 L40,33 L40,41 L39,41 C38,41 36,41 34.2,41 C32.3,41 30.7,41 28.8,41 C27,41 25,41 23,41 C21,41 19,41 17,41 C15,41 13,41 11.2,41 C9.3,41 7.7,41 5.8,41 C4,41 2,41 1,41 L0,41 L0,32 Z"
                  id="Shape" fill="#D53867" fill-rule="nonzero"></path>
            <path d="M0,37 L1,36.7 C2,36.3 4,35.7 5.8,35.5 C7.7,35.3 9.3,35.7 11.2,35.5 C13,35.3 15,34.7 17,34.7 C19,34.7 21,35.3 23,35.8 C25,36.3 27,36.7 28.8,36.3 C30.7,36 32.3,35 34.2,34.7 C36,34.3 38,34.7 39,34.8 L40,35 L40,41 L39,41 C38,41 36,41 34.2,41 C32.3,41 30.7,41 28.8,41 C27,41 25,41 23,41 C21,41 19,41 17,41 C15,41 13,41 11.2,41 C9.3,41 7.7,41 5.8,41 C4,41 2,41 1,41 L0,41 L0,37 Z"
                  id="Shape" fill="#C62368" fill-rule="nonzero"></path>
            <polygon id="Polygon" fill="#13212B" points="20.5 4 29 12.5 20.5 21 12 12.5"></polygon>
            <polygon id="Star-Copy" fill="#50E3C2"
                     points="20.6286556 14.145898 19.0040571 15 19.3143278 13.190983 18 11.9098301 19.8163563 11.645898 20.6286556 10 21.4409548 11.645898 23.2573111 11.9098301 21.9429833 13.190983 22.253254 15"></polygon>
        </g>
    </g>
</svg>